<?xml version="1.0" encoding="UTF-8" standalone="no"?>
<!-- Created with Inkscape (http://www.inkscape.org/) -->

<svg
   xmlns:dc="http://purl.org/dc/elements/1.1/"
   xmlns:cc="http://creativecommons.org/ns#"
   xmlns:rdf="http://www.w3.org/1999/02/22-rdf-syntax-ns#"
   xmlns:svg="http://www.w3.org/2000/svg"
   xmlns="http://www.w3.org/2000/svg"
   xmlns:sodipodi="http://sodipodi.sourceforge.net/DTD/sodipodi-0.dtd"
   xmlns:inkscape="http://www.inkscape.org/namespaces/inkscape"
   width="210mm"
   height="297mm"
   viewBox="0 0 210 297"
   version="1.1"
   id="svg1099"
   inkscape:version="0.92.4 (5da689c313, 2019-01-14)"
   sodipodi:docname="Bałwank.svg">
  <defs
     id="defs1093" />
  <sodipodi:namedview
     id="base"
     pagecolor="#ffffff"
     bordercolor="#666666"
     borderopacity="1.0"
     inkscape:pageopacity="0.0"
     inkscape:pageshadow="2"
     inkscape:zoom="1"
     inkscape:cx="422.39553"
     inkscape:cy="663.23438"
     inkscape:document-units="mm"
     inkscape:current-layer="layer1"
     showgrid="false"
     inkscape:window-width="1600"
     inkscape:window-height="837"
     inkscape:window-x="-8"
     inkscape:window-y="-8"
     inkscape:window-maximized="1" />
  <metadata
     id="metadata1096">
    <rdf:RDF>
      <cc:Work
         rdf:about="">
        <dc:format>image/svg+xml</dc:format>
        <dc:type
           rdf:resource="http://purl.org/dc/dcmitype/StillImage" />
        <dc:title></dc:title>
      </cc:Work>
    </rdf:RDF>
  </metadata>
  <g
     inkscape:label="Layer 1"
     inkscape:groupmode="layer"
     id="layer1">
    <path
       style="fill:none;stroke:#000000;stroke-width:0.26458332px;stroke-linecap:butt;stroke-linejoin:miter;stroke-opacity:1"
       d="m 97.517856,230.47619 c 65.011904,1.5119 63.500004,-38.55357 63.500004,-38.55357 0,0 6.04761,-62.74405 -60.47619,-52.91667 -66.523813,9.82738 -55.94048,44.60119 -55.94048,44.60119 0,0 -4.535715,43.84524 52.916666,46.86905 z"
       id="path1644"
       inkscape:connector-curvature="0" />
    <path
       style="fill:none;stroke:#000000;stroke-width:0.26458332px;stroke-linecap:butt;stroke-linejoin:miter;stroke-opacity:1"
       d="m 100.54167,137.49405 c 0,0 39.30952,9.07143 40.06547,-28.7262 0.75595,-37.797613 -40.06547,-34.773804 -40.06547,-34.773804 0,0 -42.333337,-1.511903 -45.357147,30.994044 -3.023809,32.50596 45.357147,32.50596 45.357147,32.50596 z"
       id="path1648"
       inkscape:connector-curvature="0" />
    <path
       style="fill:none;stroke:#000000;stroke-width:0.26458332px;stroke-linecap:butt;stroke-linejoin:miter;stroke-opacity:1"
       d="M 100.54167,73.994046 C 47.624999,78.529761 72.571427,49.803571 72.571427,49.803571 c 0,0 8.315478,-27.214286 30.238093,-21.922618 21.92262,5.291666 40.06548,3.023809 37.04167,24.190475 -3.02381,21.166666 -39.30952,21.922618 -39.30952,21.922618 z"
       id="path1650"
       inkscape:connector-curvature="0" />
    <path
       style="fill:none;stroke:#000000;stroke-width:0.26458332px;stroke-linecap:butt;stroke-linejoin:miter;stroke-opacity:1"
       d="m 90.06983,42.29214 c -0.267269,6.949008 7.750815,3.474503 7.750815,3.474503 0,0 4.543585,-2.138156 0.534541,-7.483547 -4.009044,-5.34539 -8.285356,4.009044 -8.285356,4.009044 z"
       id="path1658"
       inkscape:connector-curvature="0" />
    <path
       style="fill:none;stroke:#000000;stroke-width:0.26458332px;stroke-linecap:butt;stroke-linejoin:miter;stroke-opacity:1"
       d="m 109.04597,42.024871 c 0,7.216277 9.35443,2.672694 9.35443,2.672694 0,0 3.74177,-5.612659 0.53454,-7.216278 -3.20724,-1.603615 -9.88897,4.543584 -9.88897,4.543584 z"
       id="path1660"
       inkscape:connector-curvature="0" />
    <path
       style="fill:none;stroke:#000000;stroke-width:0.26458332px;stroke-linecap:butt;stroke-linejoin:miter;stroke-opacity:1"
       d="M 95.949758,53.250189 132.03115,74.899022 107.17508,51.913842 Z"
       id="path1662"
       inkscape:connector-curvature="0" />
    <path
       style="fill:none;stroke:#000000;stroke-width:0.26458332px;stroke-linecap:butt;stroke-linejoin:miter;stroke-opacity:1"
       d="m 89.802561,55.121076 42.228589,19.777946 v 0"
       id="path1664"
       inkscape:connector-curvature="0" />
    <path
       style="fill:none;stroke:#000000;stroke-width:0.26458332px;stroke-linecap:butt;stroke-linejoin:miter;stroke-opacity:1"
       d="m 95.949756,53.250189 -6.147197,1.870887 v 0"
       id="path1666"
       inkscape:connector-curvature="0" />
    <path
       style="fill:none;stroke:#000000;stroke-width:0.26458332px;stroke-linecap:butt;stroke-linejoin:miter;stroke-opacity:1"
       d="m 68.791666,27.654168 c 0,0 47.360414,15.610416 80.168744,0.79375 C 181.76875,13.63125 30.408253,3.3944914 68.791666,27.654168 Z"
       id="path1668"
       inkscape:connector-curvature="0" />
    <path
       style="opacity:1;fill:#ffffff;fill-opacity:1;stroke:none;stroke-width:4.78110218;stroke-miterlimit:4;stroke-dasharray:none;stroke-dashoffset:0;stroke-opacity:1"
       d="m 489.39553,125.95463 c -3.09081,-1.79238 -27.44764,-7.28736 -55.5,-12.52097 -15.95,-2.97573 -35.525,-6.78961 -43.5,-8.47528 -9.04227,-1.91127 -17.43293,-3.06641 -22.29216,-3.06897 -14.57356,-0.008 -29.94293,4.47026 -41.92616,12.21539 -7.3728,4.76527 -7.3382,4.76665 -31.95319,-1.27597 -22.86187,-5.61226 -32.69288,-8.68566 -37.32849,-11.66974 -11.36637,-7.316893 -19.5,-16.709867 -19.5,-22.51923 0,-12.597523 21.5846,-20.968634 67,-25.984461 15.58735,-1.721519 97.9098,-1.701835 119.5,0.02857 82.3186,6.597662 136.138,17.941652 151.6627,31.96728 6.72017,6.071276 4.58866,12.201553 -6.49669,18.684591 -6.92817,4.0518 -26.41406,11.50052 -39.55065,15.11873 -9.48464,2.61235 -36.81297,8.59503 -38.3719,8.40032 -0.1339,-0.0167 -0.91846,-0.42184 -1.74346,-0.90026 z"
       id="path1672"
       inkscape:connector-curvature="0"
       transform="scale(0.26458333)" />
    <path
       style="opacity:1;fill:#ffffff;fill-opacity:1;stroke:none;stroke-width:4.78110218;stroke-miterlimit:4;stroke-dasharray:none;stroke-dashoffset:0;stroke-opacity:1"
       d="m 483.39553,124.2278 c -4.125,-1.36431 -17.85,-4.49574 -30.5,-6.95874 -12.65,-2.463 -32.225,-6.32092 -43.5,-8.57315 -35.38233,-7.06778 -34.85614,-6.99343 -45.63287,-6.44843 -12.53585,0.63395 -25.99204,4.8085 -36.61884,11.36037 -6.67801,4.11726 -7.61856,4.41967 -11.95651,3.84422 -4.9912,-0.66211 -35.56512,-8.11445 -47.22961,-11.51214 -14.42185,-4.20087 -30.56217,-18.618433 -30.56217,-27.30007 0,-12.109333 19.33547,-20.13445 61,-25.31783 17.40471,-2.165276 80.00057,-3.039506 108.5,-1.515338 97.90955,5.236264 172.5,22.337562 172.5,39.548949 0,6.343489 -7.92997,12.023009 -27.35795,19.594029 -16.52806,6.44093 -39.63096,12.5001 -58.64205,15.37997 -1.375,0.20829 -5.875,-0.73754 -10,-2.10184 z"
       id="path1674"
       inkscape:connector-curvature="0"
       transform="scale(0.26458333)" />
    <path
       style="opacity:1;fill:#ffffff;fill-opacity:1;stroke:none;stroke-width:4.78110218;stroke-miterlimit:4;stroke-dasharray:none;stroke-dashoffset:0;stroke-opacity:1"
       d="m 483.39553,124.2663 c -4.125,-1.31399 -16.5,-4.1658 -27.5,-6.33737 -11,-2.17157 -32.825,-6.53678 -48.5,-9.70048 -24.88523,-5.0226 -29.95859,-5.7516 -40,-5.74772 -16.15966,0.006 -28.5002,3.75125 -43.44128,13.18314 -3.88635,2.45334 -4.24204,2.49662 -11.07885,1.34783 -7.79689,-1.31011 -34.97438,-8.00407 -45.60041,-11.23163 -6.52283,-1.98125 -15.19255,-7.179169 -21.26389,-12.74873 -4.29813,-3.942908 -8.61557,-11.154778 -8.61557,-14.39148 0,-14.130514 27.1825,-23.24313 80,-26.819063 22.46039,-1.520648 89.58749,-0.646015 115.5,1.504909 73.97387,6.140361 127.77342,17.873981 142.35486,31.04743 9.25862,8.364612 3.69459,15.555257 -19.43154,25.112234 -13.5853,5.61419 -26.66538,9.60842 -43.42332,13.26008 -19.29728,4.20499 -20.39323,4.26247 -29,1.52085 z"
       id="path1676"
       inkscape:connector-curvature="0"
       transform="scale(0.26458333)" />
    <path
       style="opacity:1;fill:#ffffff;fill-opacity:1;stroke:none;stroke-width:4.78110218;stroke-miterlimit:4;stroke-dasharray:none;stroke-dashoffset:0;stroke-opacity:1"
       d="m 482.89553,124.2291 c -4.4,-1.32836 -16.775,-4.17084 -27.5,-6.31663 -79.54926,-15.9157 -76.92453,-15.4606 -88.5,-15.34495 -16.00782,0.15992 -28.3969,3.91488 -42.69314,12.9397 -2.07191,1.30794 -4.88917,2.37808 -6.26056,2.37808 -3.05812,0 -32.31243,-6.82341 -46.29055,-10.79703 -13.99337,-3.97795 -25.3963,-11.650537 -31.43108,-21.14875 -10.17949,-16.021621 8.52078,-26.529997 58.27184,-32.745098 12.11712,-1.51372 22.18159,-1.797626 63.40349,-1.788531 30.81263,0.0068 54.56756,0.479934 64,1.274712 25.89681,2.182065 44.40791,4.191479 62.39655,6.773259 57.17192,8.205478 91.10345,20.170348 91.10345,32.124724 0,6.007118 -6.92056,11.174674 -24.69375,18.438734 -13.66239,5.58393 -30.14144,10.43187 -47.2451,13.89893 -8.00863,1.62342 -15.01115,2.90136 -15.56115,2.83986 -0.55,-0.0615 -4.6,-1.19866 -9,-2.52701 z"
       id="path1678"
       inkscape:connector-curvature="0"
       transform="scale(0.26458333)" />
    <path
       style="opacity:1;fill:#ffffff;fill-opacity:1;stroke:none;stroke-width:4.78110218;stroke-miterlimit:4;stroke-dasharray:none;stroke-dashoffset:0;stroke-opacity:1"
       d="m 484.89553,124.8019 c -7.26825,-2.30279 -27.86343,-6.67648 -73,-15.50265 -29.22385,-5.71453 -35.49368,-6.64268 -44.63309,-6.60721 -15.59965,0.0605 -29.09478,3.99741 -41.92504,12.23056 -2.53933,1.62949 -5.92757,2.96254 -7.52942,2.96234 -3.28327,-4.2e-4 -35.57166,-7.59085 -48.16533,-11.32283 -16.52386,-4.89665 -32.24712,-18.782752 -32.24712,-28.479266 0,-13.391925 29.00125,-23.023809 79.22684,-26.312783 22.23767,-1.456212 93.08182,-0.547211 116.77316,1.498316 55.23024,4.76862 96.17397,11.742519 121.64255,20.719238 11.39061,4.014762 15.53354,6.158541 20.40251,10.55736 6.99538,6.319904 5.06564,12.110217 -6.23881,18.719985 -6.73495,3.93796 -22.48348,10.20736 -35.7451,14.22993 -10.13513,3.07423 -38.91909,9.50855 -41.56115,9.2905 -0.55,-0.0454 -3.7,-0.93796 -7,-1.98349 z"
       id="path1680"
       inkscape:connector-curvature="0"
       transform="scale(0.26458333)" />
    <path
       style="opacity:1;fill:#ffffff;fill-opacity:1;stroke:none;stroke-width:4.78110218;stroke-miterlimit:4;stroke-dasharray:none;stroke-dashoffset:0;stroke-opacity:1"
       d="m 480.39553,123.7828 c -5.775,-1.60109 -31.2,-6.99457 -56.5,-11.98551 l -46,-9.07443 -13,0.43166 c -15.42133,0.51206 -24.49041,3.03348 -36.70826,10.20577 -4.23955,2.48876 -8.96455,4.51968 -10.5,4.51315 -3.25899,-0.0138 -27.62197,-5.62375 -44.02546,-10.13746 -7.89464,-2.17235 -13.29927,-4.35184 -17.58234,-7.09032 -11.57458,-7.400462 -18.68394,-15.989498 -18.68394,-22.572638 0,-13.144527 28.79728,-22.936266 77,-26.181772 18.81105,-1.266554 72.12055,-1.261565 97,0.0091 56.88895,2.905433 114.24031,11.724101 143.64255,22.087287 11.39061,4.014762 15.53354,6.158541 20.40251,10.55736 9.4325,8.5217 2.78753,16.277143 -22.58097,26.354593 -11.78208,4.68034 -28.89208,9.60985 -44.93545,12.94622 -8.03874,1.67173 -15.15876,2.99644 -15.82226,2.94381 -0.66351,-0.0526 -5.93138,-1.4057 -11.70638,-3.0068 z"
       id="path1682"
       inkscape:connector-curvature="0"
       transform="scale(0.26458333)" />
    <path
       style="opacity:1;fill:#ffffff;fill-opacity:1;stroke:none;stroke-width:4.78110218;stroke-miterlimit:4;stroke-dasharray:none;stroke-dashoffset:0;stroke-opacity:1"
       d="m 482.39553,124.31151 c -4.675,-1.36154 -28.975,-6.62693 -54,-11.70087 l -45.5,-9.22534 -15.5,0.0608 c -14.18428,0.0557 -16.17908,0.29305 -23.5,2.79663 -4.4,1.50469 -11.56759,4.79237 -15.92798,7.30594 -9.70758,5.59599 -9.13112,5.62663 -40.10727,-2.13173 -24.76836,-6.20354 -31.33626,-9.00897 -40.49493,-17.297089 -9.94655,-9.001111 -12.35707,-16.415951 -7.43472,-22.869485 7.02459,-9.209712 35.80004,-16.773628 73.64159,-19.357436 18.47191,-1.261255 76.15504,-1.252099 99.32331,0.01577 45.55245,2.492821 94.80307,9.138964 125.15989,16.889747 35.19838,8.986944 48.50977,19.573488 37.59011,29.895413 -7.71659,7.29419 -33.64914,17.41137 -60.32464,23.53471 -21.39183,4.91048 -22.89096,5.00532 -32.92536,2.08292 z"
       id="path1684"
       inkscape:connector-curvature="0"
       transform="scale(0.26458333)" />
    <path
       style="opacity:1;fill:#ffffff;fill-opacity:1;stroke:none;stroke-width:4.78110218;stroke-miterlimit:4;stroke-dasharray:none;stroke-dashoffset:0;stroke-opacity:1"
       d="M 484.39553,124.85462 C 470.94556,120.7896 384.14909,103.77408 373.8911,103.19141 c -18.28492,-1.03862 -31.49254,2.04743 -46.87895,10.95358 -6.41351,3.71235 -7.25337,3.94084 -12.30371,3.34727 -9.54409,-1.12172 -48.57206,-11.48091 -54.84105,-14.55645 -3.31547,-1.62656 -8.84676,-5.5081 -12.29176,-8.625641 -22.25404,-20.138752 -7.59718,-33.244466 45.3199,-40.523672 12.26265,-1.686835 22.29959,-2.161778 55,-2.602568 54.63064,-0.736404 93.04493,1.423472 138.28815,7.775367 58.08217,8.154413 93.21185,20.390063 93.21185,32.465642 0,5.324878 -4.01409,8.980472 -16.39497,14.930762 -13.12077,6.30588 -30.91292,12.17746 -49.60503,16.37012 -18.95513,4.25167 -21.3857,4.43009 -29,2.1288 z"
       id="path1686"
       inkscape:connector-curvature="0"
       transform="scale(0.26458333)" />
    <path
       style="opacity:1;fill:#ffffff;fill-opacity:1;stroke:none;stroke-width:4.78110218;stroke-miterlimit:4;stroke-dasharray:none;stroke-dashoffset:0;stroke-opacity:1"
       d="m 411.39553,130.18349 c -28.41107,-1.15317 -86.86537,-9.06533 -87.16392,-11.79819 -0.0601,-0.55 3.43972,-2.90411 7.77734,-5.23136 7.66969,-4.115 14.55476,-6.60082 22.83835,-8.24566 3.24418,-0.64419 3.49068,-0.82561 1.24105,-0.91341 -5.30383,-0.20702 -12.21492,2.07292 -24.5326,8.0932 -14.75061,7.20937 -12.42547,7.24965 -44.16022,-0.76502 -24.38926,-6.15955 -30.90083,-8.94159 -39.8199,-17.012881 -23.18041,-20.97707 -6.83672,-34.058168 51.8199,-41.475408 13.20992,-1.670419 88.25226,-2.359974 112.5,-1.033749 94.28296,5.156786 167.5,22.477065 167.5,39.623926 0,5.33179 -4.01195,8.981362 -16.39497,14.914112 -16.34138,7.82921 -38.96038,14.79698 -61.76894,19.02789 l -8.66392,1.60713 -16.33608,-4.00755 c -8.98485,-2.20415 -33.88609,-7.45658 -55.33609,-11.67208 -32.25707,-6.33937 -40.9883,-7.71404 -50.5,-7.95086 l -11.5,-0.28633 11,0.76634 c 6.05,0.42148 17.3,2.17483 25,3.89634 7.7,1.7215 26.375,5.41026 41.5,8.19724 26.23169,4.83353 45.80967,9.20261 48.84239,10.8998 1.55255,0.86886 -4.71439,1.61286 -25.84239,3.06798 -12.7102,0.87537 -30.98768,0.98905 -48,0.29854 z"
       id="path1688"
       inkscape:connector-curvature="0"
       transform="scale(0.26458333)" />
    <path
       style="opacity:1;fill:#ffffff;fill-opacity:1;stroke:none;stroke-width:4.78110218;stroke-miterlimit:4;stroke-dasharray:none;stroke-dashoffset:0;stroke-opacity:1"
       d="m 410.39553,130.18683 c -29.43898,-1.41812 -86.62184,-9.25603 -86.42887,-11.8466 0.1406,-1.88754 18.0662,-10.42234 25.92887,-12.34534 4.4,-1.07612 6.8099,-1.99101 5.35534,-2.03309 -4.57069,-0.13221 -15.99109,3.89806 -25.83674,9.11782 -11.54365,6.11997 -10.71158,6.1539 -41.82231,-1.70542 -24.59608,-6.21357 -31.08261,-8.97961 -40.01619,-17.064031 -19.71106,-17.837491 -10.39759,-30.280192 28.3199,-37.835079 23.85269,-4.654341 30.68969,-5.057045 86,-5.065464 34.58429,-0.0053 58.21199,0.43584 68,1.269489 91.89775,7.826973 149.5,22.789073 149.5,38.832408 0,5.235623 -4.0843,8.929437 -16.39497,14.827527 -16.39517,7.85498 -38.94984,14.79444 -61.96228,19.06412 -8.54935,1.58623 -9.12293,1.57257 -16.5,-0.39287 -18.44169,-4.91333 -100.0839,-21.23687 -105.03068,-20.99983 -1.87228,0.0897 -1.4792,0.33523 1.38793,0.86688 2.2,0.40795 15.25,2.9959 29,5.75101 13.75,2.75511 33.775,6.68974 44.5,8.74363 10.725,2.05389 22.425,4.66742 26,5.80784 l 6.5,2.07351 -5.55682,0.75589 c -16.73621,2.27661 -48.5903,3.25437 -70.94318,2.1776 z m -37.25,-27.01778 c -1.5125,-0.22913 -3.9875,-0.22913 -5.5,0 -1.5125,0.22912 -0.275,0.41659 2.75,0.41659 3.025,0 4.2625,-0.18747 2.75,-0.41659 z"
       id="path1690"
       inkscape:connector-curvature="0"
       transform="scale(0.26458333)" />
    <path
       style="opacity:1;fill:#ffffff;fill-opacity:1;stroke:none;stroke-width:4.78110218;stroke-miterlimit:4;stroke-dasharray:none;stroke-dashoffset:0;stroke-opacity:1"
       d="m 402.90313,129.84105 c -26.20759,-1.81518 -76.67201,-8.79219 -78.8308,-10.89883 -1.71047,-1.66915 17.4751,-11.32386 26.03279,-13.10043 2.99696,-0.62217 5.22732,-1.35291 4.95636,-1.62387 -1.20756,-1.20756 -14.11259,3.16115 -24.16595,8.18084 -6.05,3.02079 -12.29203,5.49104 -13.87119,5.48945 -7.12855,-0.007 -48.86172,-10.95722 -57.21406,-15.0119 -7.14332,-3.467766 -18.46483,-13.469429 -20.78753,-18.364156 -2.42102,-5.101923 -2.0833,-9.931382 0.94627,-13.531824 7.65065,-9.092285 35.5671,-16.540775 71.42651,-19.057568 18.49053,-1.297759 81.17118,-1.30954 104,-0.01955 62.94897,3.557071 123.91635,14.036698 148.9906,25.609858 14.00429,6.463756 18.21889,13.40451 12.36443,20.362149 -6.22326,7.395931 -38.93967,19.863461 -68.32251,26.036281 l -15.46748,3.24944 -12.53252,-3.14156 c -15.0367,-3.76928 -81.59896,-17.18028 -84.49204,-17.0235 -3.40602,0.18458 7.51073,2.57265 38.45952,8.41314 29.87829,5.63847 47.56199,9.57215 50.55108,11.24493 4.68778,2.62341 -56.09242,4.98451 -82.04348,3.1871 z m -11.5076,-23.95575 c -1.375,-0.44035 -3.625,-0.79225 -5,-0.782 -2.2456,0.0167 -2.19472,0.0963 0.5,0.782 1.65,0.41985 3.9,0.77176 5,0.78201 1.5672,0.0146 1.45899,-0.15463 -0.5,-0.78201 z m -8.73097,-1.65594 c -0.67703,-0.27392 -2.02703,-0.29059 -3,-0.037 -0.97297,0.25355 -0.41903,0.47767 1.23097,0.49805 1.65,0.0204 2.44606,-0.18707 1.76903,-0.46099 z"
       id="path1692"
       inkscape:connector-curvature="0"
       transform="scale(0.26458333)" />
    <path
       style="opacity:1;fill:#ffffff;fill-opacity:1;stroke:none;stroke-width:4.78110218;stroke-miterlimit:4;stroke-dasharray:none;stroke-dashoffset:0;stroke-opacity:1"
       d="m 409.89553,130.21739 c -31.38084,-1.92942 -83.30262,-8.73471 -85.81561,-11.2477 -0.9174,-0.91739 2.70801,-3.36271 11.81561,-7.96956 3.3,-1.66922 5.51178,-3.05292 4.91506,-3.07489 -0.59672,-0.022 -5.4643,2.21006 -10.81685,4.96006 -5.35255,2.75 -11.07861,5 -12.7246,5 -7.52292,0 -48.70907,-10.7571 -57.45886,-15.00724 -7.14469,-3.470484 -18.46542,-13.472413 -20.78753,-18.365906 -3.86324,-8.141159 -1.13583,-13.962678 9.07139,-19.36244 12.3312,-6.523378 36.04418,-11.399598 65.03485,-13.373442 22.54046,-1.534678 103.04357,-0.563311 124.76654,1.505459 37.82256,3.602003 62.0669,7.032838 86.36432,12.221479 43.88031,9.370512 62.3144,20.697217 52.55695,32.293284 -5.83414,6.933486 -36.4169,19.041406 -63.42127,25.108916 -18.55554,4.16917 -20.72791,4.36428 -27.89999,2.5058 -7.21866,-1.87054 -9.25426,-1.51976 -2.85646,0.49223 l 4.25645,1.33857 -4.89642,0.75969 c -14.08834,2.18584 -53.09418,3.38445 -72.10358,2.21569 z m 67.22917,-6.93626 c -0.3323,-0.33229 -1.1948,-0.36781 -1.91667,-0.079 -0.79773,0.31923 -0.56078,0.55619 0.60417,0.60417 1.05416,0.0434 1.64479,-0.19293 1.3125,-0.52522 z m -4,-1 c -0.3323,-0.33229 -1.1948,-0.36781 -1.91667,-0.079 -0.79773,0.31923 -0.56078,0.55619 0.60417,0.60417 1.05416,0.0434 1.64479,-0.19293 1.3125,-0.52522 z m -4.47917,-1.05811 c -0.6875,-0.27741 -1.8125,-0.27741 -2.5,0 -0.6875,0.27741 -0.125,0.50439 1.25,0.50439 1.375,0 1.9375,-0.22698 1.25,-0.50439 z m -5,-1 c -0.6875,-0.27741 -1.8125,-0.27741 -2.5,0 -0.6875,0.27741 -0.125,0.50439 1.25,0.50439 1.375,0 1.9375,-0.22698 1.25,-0.50439 z m -4.75,-0.90291 c -2.5639,-1.04425 -19.5,-4.0997 -19.5,-3.51799 0,0.3619 3.7125,1.36832 8.25,2.23647 7.93055,1.51735 13.3427,2.13386 11.25,1.28152 z m -29.59433,-5.86247 c -0.7432,-0.7432 -33.0666,-6.74474 -33.57704,-6.2343 -0.26798,0.26798 1.91095,0.9776 4.84206,1.57693 2.93112,0.59934 9.37931,1.94364 14.32931,2.98734 8.57424,1.80786 15.32626,2.59062 14.40567,1.67003 z m -81.90567,-7.02062 c 2.475,-0.77986 3.6,-1.42773 2.5,-1.43972 -1.1,-0.012 -3.35,0.59636 -5,1.35189 -3.94398,1.80591 -3.05206,1.83725 2.5,0.0878 z m 44,-0.55172 c -1.375,-0.44035 -3.4,-0.80064 -4.5,-0.80064 -1.58367,0 -1.47958,0.16667 0.5,0.80064 1.375,0.44035 3.4,0.80064 4.5,0.80064 1.58367,0 1.47958,-0.16667 -0.5,-0.80064 z m -36.27083,-1.60417 c -0.3323,-0.33229 -1.1948,-0.36781 -1.91667,-0.079 -0.79773,0.31923 -0.56078,0.55619 0.60417,0.60417 1.05416,0.0434 1.64479,-0.19293 1.3125,-0.52522 z m 27,0 c -0.3323,-0.33229 -1.1948,-0.36781 -1.91667,-0.079 -0.79773,0.31923 -0.56078,0.55619 0.60417,0.60417 1.05416,0.0434 1.64479,-0.19293 1.3125,-0.52522 z"
       id="path1694"
       inkscape:connector-curvature="0"
       transform="scale(0.26458333)" />
    <path
       style="opacity:1;fill:#ffffff;fill-opacity:1;stroke:none;stroke-width:4.78110218;stroke-miterlimit:4;stroke-dasharray:none;stroke-dashoffset:0;stroke-opacity:1"
       d="m 408.39553,130.22415 c -33.3892,-2.31299 -81.85296,-8.80002 -84.34952,-11.29046 -0.46724,-0.46609 1.24059,-2.07232 3.79517,-3.56941 6.41077,-3.75696 5.1339,-4.17346 -1.53142,-0.49953 -2.97783,1.64137 -6.88458,2.99247 -8.68168,3.00244 -8.03739,0.0446 -48.66402,-10.51853 -58.04672,-15.09238 -7.20877,-3.514109 -18.19896,-13.290066 -20.57878,-18.305149 -2.36227,-4.978127 -2.05164,-9.902552 0.84156,-13.34092 7.76253,-9.225238 35.1947,-16.646131 71.05139,-19.220671 17.98632,-1.291433 82.8199,-1.289036 105.5,0.0039 77.08785,4.394588 145.34225,18.439236 159.75,32.871621 4.10464,4.11166 4.36416,8.624158 0.74344,12.927132 -6.84874,8.139267 -41.75537,21.214007 -72.64086,27.208597 -11.31332,2.19581 -11.84039,2.21219 -18.37428,0.57093 -3.69977,-0.92935 -6.94191,-1.47467 -7.20476,-1.21182 -0.26285,0.26285 1.14805,0.78294 3.13532,1.15575 1.98728,0.37282 3.82451,1.0197 4.08273,1.43752 1.52177,2.46226 -55.02677,4.90868 -77.49159,3.35245 z m 68.72917,-6.94302 c -0.3323,-0.33229 -1.1948,-0.36781 -1.91667,-0.079 -0.79773,0.31923 -0.56078,0.55619 0.60417,0.60417 1.05416,0.0434 1.64479,-0.19293 1.3125,-0.52522 z m -4,-1 c -0.3323,-0.33229 -1.1948,-0.36781 -1.91667,-0.079 -0.79773,0.31923 -0.56078,0.55619 0.60417,0.60417 1.05416,0.0434 1.64479,-0.19293 1.3125,-0.52522 z m -14.47917,-3.05811 c -0.6875,-0.27741 -1.8125,-0.27741 -2.5,0 -0.6875,0.27741 -0.125,0.50439 1.25,0.50439 1.375,0 1.9375,-0.22698 1.25,-0.50439 z m -8.75,-1.86052 c -2.75,-0.70686 -6.125,-1.27791 -7.5,-1.26898 -1.375,0.009 -0.025,0.59022 3,1.29178 7.17916,1.66499 10.99108,1.64568 4.5,-0.0228 z m -33,-6.53009 c -9.47893,-1.9247 -12.15335,-2.26713 -11.33791,-1.45169 0.88811,0.88811 13.24738,3.30408 16.83791,3.29145 2.03467,-0.007 -0.26799,-0.77741 -5.5,-1.83976 z m -76.5,-1.94711 c 0.825,-0.53316 1.05,-0.96937 0.5,-0.96937 -0.55,0 -1.675,0.43621 -2.5,0.96937 -0.825,0.53316 -1.05,0.96937 -0.5,0.96937 0.55,0 1.675,-0.43621 2.5,-0.96937 z m 63.91667,-0.38576 c -0.22917,-0.21217 -2.44167,-0.64706 -4.91667,-0.96643 l -4.5,-0.58067 4.5,1.30541 c 4.06587,1.17947 6.03408,1.27622 4.91667,0.24169 z m -58.41667,-1.61424 c 1.31874,-0.56668 1.48906,-0.87815 0.5,-0.9144 -0.825,-0.0302 -2.175,0.38124 -3,0.9144 -1.82797,1.18132 -0.24909,1.18132 2.5,0 z m 46.22917,-0.60417 c -0.3323,-0.33229 -1.1948,-0.36781 -1.91667,-0.079 -0.79773,0.31923 -0.56078,0.55619 0.60417,0.60417 1.05416,0.0434 1.64479,-0.19293 1.3125,-0.52522 z"
       id="path1696"
       inkscape:connector-curvature="0"
       transform="scale(0.26458333)" />
    <path
       style="opacity:1;fill:#ffffff;fill-opacity:1;stroke:none;stroke-width:4.78110218;stroke-miterlimit:4;stroke-dasharray:none;stroke-dashoffset:0;stroke-opacity:1"
       d="m 405.89553,130.20284 c -28.27237,-1.82057 -82.5,-9.38861 -82.5,-11.51375 0,-0.47918 1.575,-1.80051 3.5,-2.93629 5.16089,-3.045 4.25318,-3.28286 -1.46676,-0.38435 -2.73171,1.38427 -6.39003,2.51685 -8.12959,2.51685 -7.99674,0 -48.44735,-10.58939 -57.71782,-15.1097 -7.20931,-3.515277 -18.19922,-13.291403 -20.57878,-18.305939 -0.88388,-1.86264 -1.60705,-4.990452 -1.60705,-6.950693 0,-12.410052 27.70333,-22.134713 73,-25.625088 16.35456,-1.260215 84.67917,-1.252646 107,0.01185 61.65176,3.492641 122.52428,14.155583 147.38875,25.817851 13.98779,6.560743 17.93287,13.060747 12.11991,19.96905 -6.90586,8.207159 -40.35395,20.772409 -72.50866,27.238909 -9.65801,1.94228 -12.54074,2.0037 -20,0.42609 l -2.5,-0.52875 2.5,1.17353 c 2.46005,1.15478 2.43504,1.18585 -1.56487,1.94446 -11.54282,2.18918 -57.18725,3.5276 -76.93513,2.25597 z m 47.22917,-11.92171 c -0.3323,-0.33229 -1.1948,-0.36781 -1.91667,-0.079 -0.79773,0.31923 -0.56078,0.55619 0.60417,0.60417 1.05416,0.0434 1.64479,-0.19293 1.3125,-0.52522 z m -4.47917,-1.05811 c -0.6875,-0.27741 -1.8125,-0.27741 -2.5,0 -0.6875,0.27741 -0.125,0.50439 1.25,0.50439 1.375,0 1.9375,-0.22698 1.25,-0.50439 z m -4.52083,-0.94189 c -0.3323,-0.33229 -1.1948,-0.36781 -1.91667,-0.079 -0.79773,0.31923 -0.56078,0.55619 0.60417,0.60417 1.05416,0.0434 1.64479,-0.19293 1.3125,-0.52522 z m -25.72917,-4.95759 c -6.06988,-1.47952 -14.1252,-2.70986 -12.4087,-1.89527 1.77835,0.84395 13.74139,3.30063 15.9087,3.26695 1.1,-0.0171 -0.475,-0.63435 -3.5,-1.37168 z m -78.50708,-2.42679 c 0.35034,-0.56686 -0.0511,-0.7345 -0.94098,-0.39301 -1.73242,0.66479 -2.04939,1.38156 -0.61096,1.38156 0.51754,0 1.21592,-0.44485 1.55194,-0.98855 z m 63.77611,-0.66739 c -0.67703,-0.27392 -2.02703,-0.29059 -3,-0.037 -0.97297,0.25355 -0.41903,0.47767 1.23097,0.49805 1.65,0.0204 2.44606,-0.18707 1.76903,-0.46099 z"
       id="path1698"
       inkscape:connector-curvature="0"
       transform="scale(0.26458333)" />
    <path
       style="opacity:1;fill:#ffffff;fill-opacity:1;stroke:none;stroke-width:4.78110218;stroke-miterlimit:4;stroke-dasharray:none;stroke-dashoffset:0;stroke-opacity:1"
       d="m 405.39553,130.20603 c -32.14804,-2.35646 -82,-9.37091 -82,-11.53785 0,-0.46768 1.575,-1.7796 3.5,-2.91538 5.16089,-3.045 4.25318,-3.28286 -1.46676,-0.38435 -2.73171,1.38427 -6.39003,2.51685 -8.12959,2.51685 -7.99674,0 -48.44735,-10.58939 -57.71782,-15.1097 -7.20931,-3.515277 -18.19922,-13.291403 -20.57878,-18.305939 -0.88388,-1.86264 -1.60705,-4.990452 -1.60705,-6.950693 0,-12.606902 27.54126,-22.134277 74.37667,-25.729194 21.16104,-1.624245 104.57484,-0.633243 127.62333,1.516235 85.97821,8.018242 140,22.711971 140,38.07949 0,4.782583 -3.64747,8.573269 -12.86231,13.367361 -14.95656,7.78125 -35.43223,14.56135 -59.43997,19.68234 -11.51437,2.45607 -15.01483,2.60034 -22.69772,0.93544 l -2.5,-0.54176 2.5,1.17353 c 2.44186,1.14624 2.40006,1.19238 -1.79716,1.98412 -11.69428,2.20592 -58.8811,3.5625 -77.20284,2.2195 z m 15.38206,-18.30304 c -1.16487,-0.47054 -4.31487,-1.10016 -7,-1.39914 l -4.88206,-0.54359 5.5,1.3503 c 6.31514,1.55043 9.48121,1.84433 6.38206,0.59243 z m -12.65289,-2.62186 c -0.3323,-0.33229 -1.1948,-0.36781 -1.91667,-0.079 -0.79773,0.31923 -0.56078,0.55619 0.60417,0.60417 1.05416,0.0434 1.64479,-0.19293 1.3125,-0.52522 z m -5,-1 c -0.3323,-0.33229 -1.1948,-0.36781 -1.91667,-0.079 -0.79773,0.31923 -0.56078,0.55619 0.60417,0.60417 1.05416,0.0434 1.64479,-0.19293 1.3125,-0.52522 z"
       id="path1700"
       inkscape:connector-curvature="0"
       transform="scale(0.26458333)" />
    <path
       style="opacity:1;fill:#ffffff;fill-opacity:1;stroke:none;stroke-width:4.78110218;stroke-miterlimit:4;stroke-dasharray:none;stroke-dashoffset:0;stroke-opacity:1"
       d="m 404.39553,130.20112 c -32.00366,-2.38087 -81,-9.33746 -81,-11.50054 0,-0.46457 1.4625,-1.73638 3.25,-2.82624 4.21284,-2.56862 2.79283,-2.5617 -2.25,0.011 -2.15618,1.1 -5.66684,2 -7.80147,2 -4.21951,0 -34.77214,-7.3035 -47.77694,-11.42092 -11.98521,-3.7946 -23.48932,-12.121783 -29.77379,-21.551585 -2.5862,-3.880558 -2.13467,-10.295429 0.98567,-14.003752 7.71057,-9.163492 35.31456,-16.54719 71.49885,-19.12499 19.18707,-1.366903 106.14291,-0.615356 123.86768,1.07057 90.81133,8.6377 144,22.869687 144,38.530876 0,4.798952 -3.65281,8.576048 -12.9935,13.435611 -20.58091,10.70736 -65.33566,23.29163 -76.74805,21.58024 -2.78302,-0.41734 -4.24712,-0.30673 -3.87655,0.29286 1.70958,2.76616 -57.21012,5.30513 -81.3819,3.50691 z m 8.72917,-19.91999 c -0.3323,-0.33229 -1.1948,-0.36781 -1.91667,-0.079 -0.79773,0.31923 -0.56078,0.55619 0.60417,0.60417 1.05416,0.0434 1.64479,-0.19293 1.3125,-0.52522 z m -10,-2 c -0.3323,-0.33229 -1.1948,-0.36781 -1.91667,-0.079 -0.79773,0.31923 -0.56078,0.55619 0.60417,0.60417 1.05416,0.0434 1.64479,-0.19293 1.3125,-0.52522 z"
       id="path1702"
       inkscape:connector-curvature="0"
       transform="scale(0.26458333)" />
    <path
       style="opacity:1;fill:#ffffff;fill-opacity:1;stroke:none;stroke-width:4.78110218;stroke-miterlimit:4;stroke-dasharray:none;stroke-dashoffset:0;stroke-opacity:1"
       d="m 393.07791,129.30496 c -25.5782,-2.32393 -68.06703,-8.45874 -69.64563,-10.05588 -0.29522,-0.29868 0.81325,-1.66274 2.46325,-3.03124 l 3,-2.48818 -4.21016,2.07782 c -2.31559,1.1428 -5.95668,2.07782 -8.09131,2.07782 -4.21951,0 -34.77214,-7.3035 -47.77694,-11.42092 -11.98521,-3.7946 -23.48932,-12.121783 -29.77379,-21.551585 -2.5862,-3.880558 -2.13467,-10.295429 0.98567,-14.003752 7.60317,-9.03585 34.57991,-16.351659 70.39901,-19.091469 21.31096,-1.630079 107.47317,-0.643318 129.96752,1.488436 60.91217,5.77255 104.9654,14.599274 126.45872,25.337897 17.4741,8.730514 16.79203,17.991146 -1.99784,27.125183 -21.61464,10.5072 -64.20357,22.24572 -75.22808,20.73464 -2.39171,-0.32782 -4.09318,-0.20154 -3.79457,0.28162 2.16395,3.50135 -62.59037,5.26033 -92.75585,2.51961 z m 20.04679,-19.02383 c -0.3323,-0.33229 -1.1948,-0.36781 -1.91667,-0.079 -0.79773,0.31923 -0.56078,0.55619 0.60417,0.60417 1.05416,0.0434 1.64479,-0.19293 1.3125,-0.52522 z"
       id="path1704"
       inkscape:connector-curvature="0"
       transform="scale(0.26458333)" />
    <path
       style="opacity:1;fill:#ffffff;fill-opacity:1;stroke:none;stroke-width:4.78110218;stroke-miterlimit:4;stroke-dasharray:none;stroke-dashoffset:0;stroke-opacity:1"
       d="m 397.89553,129.86191 c -25.22123,-2.23467 -72.86536,-8.99826 -74.41434,-10.56392 -0.32211,-0.32558 0.76434,-1.71165 2.41434,-3.08015 l 3,-2.48818 -4.21016,2.07782 c -2.31559,1.1428 -5.84335,2.07782 -7.83946,2.07782 -8.4529,0 -50.46625,-11.26607 -58.81384,-15.7712 -5.88374,-3.175397 -17.1216,-13.332326 -19.20165,-17.354697 -2.43867,-4.715865 -1.84352,-10.339105 1.49691,-14.14365 7.71275,-8.784335 33.9728,-15.958494 68.46341,-18.703981 16.30734,-1.298079 86.34784,-1.302095 110.10479,-0.0063 62.18312,3.391673 123.35688,14.446726 147.95872,26.738447 17.64745,8.817126 16.79853,18.046584 -2.52101,27.408231 -18.975,9.19471 -55.96725,19.86261 -69.93771,20.16879 -4.125,0.0904 -7.74337,0.48862 -8.04082,0.88493 -1.91048,2.54541 -67.70174,4.59521 -88.45918,2.75605 z"
       id="path1706"
       inkscape:connector-curvature="0"
       transform="scale(0.26458333)" />
    <path
       style="fill:none;stroke:#000000;stroke-width:0.26458332px;stroke-linecap:butt;stroke-linejoin:miter;stroke-opacity:1"
       d="M 86.518749,23.685416 V -2.24375 c 0,0 6.085417,-11.1125 29.104171,-10.583333 23.01874,0.529166 23.54791,14.0229163 23.54791,14.0229163 l -1.85208,25.4000007 z"
       id="path1708"
       inkscape:connector-curvature="0" />
    <path
       style="opacity:1;fill:#ffffff;fill-opacity:1;stroke:none;stroke-width:4.78110218;stroke-miterlimit:4;stroke-dasharray:none;stroke-dashoffset:0;stroke-opacity:1"
       d="m 426.89553,94.325904 c -49.5,-2.924606 -91.9125,-5.345171 -94.25,-5.379034 l -4.25,-0.06157 v -19 -19 l 36.75,0.01909 c 58.84615,0.03057 95.94706,2.91986 142.94081,11.131725 l 12.56993,2.196516 -0.64924,9.076333 c -0.35709,4.991983 -0.93032,13.013833 -1.27385,17.826333 -0.34354,4.8125 -0.89754,8.695565 -1.23113,8.629034 -0.33359,-0.06653 -41.10652,-2.513825 -90.60652,-5.438431 z"
       id="path1710"
       inkscape:connector-curvature="0"
       transform="scale(0.26458333)" />
    <path
       style="opacity:1;fill:#ffffff;fill-opacity:1;stroke:none;stroke-width:4.78110218;stroke-miterlimit:4;stroke-dasharray:none;stroke-dashoffset:0;stroke-opacity:1"
       d="m 501.39553,98.760121 c -15.32368,-1.02717 -168.81296,-9.87966 -171.25,-9.87684 -1.60534,0.0019 -1.75,-1.56864 -1.75,-18.99798 v -19 h 34 c 22,0 34,-0.352941 34,-1 0,-0.647059 -12,-1 -34,-1 h -34 V 19.953609 -8.9780823 l 3.75,-4.4010927 c 12.59702,-14.784179 35.77475,-26.288934 63.23655,-31.388802 11.49799,-2.135265 47.96741,-2.977076 60.52075,-1.39698 35.51211,4.469932 60.32567,20.479785 67.38643,43.4781277 1.83045,5.962135 1.82545,6.60068 -0.27605,35.2500903 -1.17715,16.047877 -2.37321,29.41091 -2.65793,29.69562 -0.28471,0.28471 -6.57963,-0.52627 -13.9887,-1.80219 -19.81055,-3.41157 -22.17581,-3.71172 -21.57385,-2.73773 0.29941,0.48446 2.69801,1.13591 5.33023,1.44765 2.63221,0.31175 10.5793,1.57918 17.66019,2.81653 l 12.87435,2.24971 -0.66125,10.07622 c -1.66597,25.38648 -1.69782,25.58922 -3.9945,25.43259 -1.15842,-0.079 -7.73122,-0.52069 -14.60622,-0.98154 z M 471.3122,55.525411 c -0.22917,-0.19794 -2.89167,-0.63645 -5.91667,-0.97446 -3.67416,-0.41056 -5.00204,-0.29617 -4,0.34457 1.36076,0.87012 10.89602,1.47579 9.91667,0.62989 z m -17.91667,-1.64011 c 0,-0.55 -2.1375,-0.93241 -4.75,-0.84981 l -4.75,0.1502 4.5,0.69961 c 2.475,0.38479 4.6125,0.7672 4.75,0.84981 0.1375,0.0826 0.25,-0.29981 0.25,-0.84981 z m -19.5,-2.038487 c -3.3,-0.409445 -10.275,-0.7052 -15.5,-0.657233 l -9.5,0.08721 10.5,0.608508 c 5.775,0.33468 12.75,0.63043 15.5,0.65723 l 5,0.0487 -6,-0.744447 z"
       id="path1712"
       inkscape:connector-curvature="0"
       transform="scale(0.26458333)" />
    <path
       style="opacity:1;fill:#ffffff;fill-opacity:1;stroke:none;stroke-width:4.78110218;stroke-miterlimit:4;stroke-dasharray:none;stroke-dashoffset:0;stroke-opacity:1"
       d="m 501.39553,98.781081 c -12.02962,-0.85751 -168.55725,-9.89578 -171.37834,-9.89578 -1.43865,0 -1.62166,-2.14426 -1.62166,-19 v -19 h 21 c 13.33333,0 21,-0.365079 21,-1 0,-0.634921 -7.66667,-1 -21,-1 h -21 V 19.583723 -9.7178563 l 6.13454,-6.2110727 c 15.46368,-15.656574 38.74237,-25.871473 67.66667,-29.692737 6.49712,-0.858352 19.03744,-1.490527 29.50001,-1.487138 27.58579,0.0089 44.18961,3.133675 61.23751,11.524534 15.33149,7.546051 26.16196,19.279835 30.36488,32.8974407 1.84361,5.973365 1.83909,6.54675 -0.27808,35.2521173 -1.18369,16.048992 -2.38931,29.417133 -2.67915,29.706973 -0.43728,0.43727 -10.49061,-1.07559 -32.79481,-4.93511 -1.93513,-0.33485 -3.10818,-0.19066 -2.77921,0.34162 0.31307,0.50657 2.72285,1.1761 5.35507,1.48784 2.63221,0.31175 10.5793,1.57918 17.66019,2.81653 l 12.87435,2.24971 -0.66125,10.07622 c -1.72683,26.313839 -1.59927,25.592 -4.4945,25.434 -1.43342,-0.07822 -7.78122,-0.51112 -14.10622,-0.96199 z M 471.3122,55.518351 c -0.94267,-0.83018 -9.83762,-1.31416 -9.33949,-0.50817 0.29747,0.48132 2.6143,0.87512 5.1485,0.87512 2.53421,0 4.42015,-0.16513 4.19099,-0.36695 z m -17.91667,-1.63305 c 0,-0.55 -2.1375,-0.93241 -4.75,-0.84981 l -4.75,0.1502 4.5,0.69961 c 2.475,0.38479 4.6125,0.7672 4.75,0.84981 0.1375,0.0826 0.25,-0.29981 0.25,-0.84981 z m -19.5,-2.038487 c -3.3,-0.409445 -9.825,-0.707149 -14.5,-0.661563 l -8.5,0.08288 9.5,0.617168 c 5.225,0.33944 11.75,0.63715 14.5,0.66156 l 5,0.0444 z m -38.5,-1.961513 c -1.75121,-1.131714 -8.4027,-1.151457 -15.5,-0.04601 -4.15629,0.647368 -3.14384,0.798743 6,0.897081 7.42746,0.07988 10.51283,-0.196526 9.5,-0.851071 z"
       id="path1714"
       inkscape:connector-curvature="0"
       transform="scale(0.26458333)" />
    <path
       style="opacity:1;fill:#ffffff;fill-opacity:1;stroke:none;stroke-width:4.78110218;stroke-miterlimit:4;stroke-dasharray:none;stroke-dashoffset:0;stroke-opacity:1"
       d="m 482.89553,97.801021 c -27.27981,-1.7153 -151.21928,-8.91572 -153.46449,-8.91572 -0.67768,0 -1.03551,-6.56557 -1.03551,-19 v -19 l 15.25,-0.09968 c 8.3875,-0.05482 16.375,-0.459968 17.75,-0.90032 1.47191,-0.471388 -4.79943,-0.841632 -15.25,-0.90032 l -17.75,-0.09968 V 19.603946 -9.6774103 l 4.93119,-5.1700577 c 13.64125,-14.302036 32.38545,-23.67576 58.56881,-29.289477 12.73141,-2.729616 49.21769,-3.889588 63.96348,-2.033527 36.4427,4.587065 61.76017,21.401112 68.07064,45.20763869 1.02248,3.85738001 0.86817,9.60777701 -0.90355,33.66969931 -1.17515,15.959809 -2.38567,29.266865 -2.69005,29.571245 -0.30437,0.30437 -6.82801,-0.50539 -14.49696,-1.79947 -19.13631,-3.22911 -21.77957,-3.59601 -21.11439,-2.93083 0.48652,0.48651 32.38927,6.22667 35.06811,6.30968 0.84512,0.0262 0.41949,11.6959 -1.04962,28.77781 l -0.62352,7.25 -3.11207,-0.13041 c -1.71164,-0.07173 -16.16207,-0.95097 -32.11207,-1.95387 z m -14.25,-42.62145 c -1.2375,-0.23836 -3.2625,-0.23836 -4.5,0 -1.2375,0.23835 -0.225,0.43337 2.25,0.43337 2.475,0 3.4875,-0.19502 2.25,-0.43337 z m -15.75,-1.29427 c -0.33992,-0.55 -2.27898,-0.93614 -4.30902,-0.85809 l -3.69098,0.1419 4,0.71619 c 2.2,0.3939 4.13906,0.78005 4.30902,0.85809 0.16996,0.078 0.0309,-0.30809 -0.30902,-0.85809 z m -16.73834,-1.68708 c -0.95609,-0.25029 -2.75609,-0.25937 -4,-0.0202 -1.24391,0.23919 -0.46166,0.44398 1.73834,0.45508 2.2,0.0111 3.21775,-0.18461 2.26166,-0.4349 z m -10.98523,-1.039813 c -2.04796,-0.214877 -5.64796,-0.217849 -8,-0.0066 -2.35204,0.211242 -0.67643,0.38705 3.72357,0.390683 4.4,0.0036 6.32439,-0.169205 4.27643,-0.384083 z m -54.77643,-1.273107 c 0,-0.55 -1.2375,-0.955144 -2.75,-0.90032 l -2.75,0.09968 2.5,0.80064 c 1.375,0.440352 2.6125,0.845496 2.75,0.90032 0.1375,0.05482 0.25,-0.35032 0.25,-0.90032 z m 24,0 c -1.83318,-1.184689 -12.74308,-1.184689 -15.5,0 -1.3108,0.563267 1.27373,0.878373 7.5,0.914402 6.48058,0.0375 9.02325,-0.253127 8,-0.914402 z"
       id="path1716"
       inkscape:connector-curvature="0"
       transform="scale(0.26458333)" />
    <path
       style="opacity:1;fill:#ffffff;fill-opacity:1;stroke:none;stroke-width:4.78110218;stroke-miterlimit:4;stroke-dasharray:none;stroke-dashoffset:0;stroke-opacity:1"
       d="m 489.89553,98.296261 c -11,-0.72197 -47.9,-2.90224 -82,-4.84504 -34.1,-1.94281 -65.9375,-3.8127 -70.75,-4.15531 l -8.75,-0.62293 v -18.89384 -18.89384 h 15.94098 c 9.54863,0 16.18882,-0.401001 16.55902,-1 0.40252,-0.651289 -5.15628,-1 -15.94099,-1 H 328.39553 V 19.472554 -9.9401943 l 5.8696,-5.9614367 c 13.48994,-13.70101 31.85645,-22.701127 57.6304,-28.240542 7.94362,-1.707266 14.72968,-2.258215 33,-2.679214 33.55896,-0.77329 50.99697,2.227227 70,12.044743 16.99688,8.781078 29.94325,26.2008987 29.81237,40.1136247 -0.0891,9.4706983 -3.55105,55.3164803 -4.26426,56.4704703 -0.41796,0.67628 -5.54631,0.18716 -15.09061,-1.43926 -7.95163,-1.35501 -15.3575,-2.4193 -16.4575,-2.36509 -1.90221,0.0938 0.45173,0.56575 22.38821,4.48907 l 9.38821,1.67907 -0.66505,11.60703 c -0.36578,6.38387 -0.94012,14.41953 -1.27631,17.85703 l -0.61125,6.25 -4.1119,-0.13818 c -2.26155,-0.076 -13.11191,-0.72889 -24.11191,-1.45086 z m -21.75,-43.10029 c -0.9625,-0.25152 -2.5375,-0.25152 -3.5,0 -0.9625,0.25153 -0.175,0.45733 1.75,0.45733 1.925,0 2.7125,-0.2058 1.75,-0.45733 z m -17,-2 c -0.9625,-0.25152 -2.5375,-0.25152 -3.5,0 -0.9625,0.25153 -0.175,0.45733 1.75,0.45733 1.925,0 2.7125,-0.2058 1.75,-0.45733 z m -15.5,-0.97295 c -0.6875,-0.27741 -1.8125,-0.27741 -2.5,0 -0.6875,0.27741 -0.125,0.50439 1.25,0.50439 1.375,0 1.9375,-0.22698 1.25,-0.50439 z M 423.65928,51.18137 c -1.22994,-0.237362 -3.47994,-0.243505 -5,-0.01365 -1.52007,0.229854 -0.51375,0.424059 2.23625,0.431567 2.75,0.0075 3.99368,-0.180555 2.76375,-0.417917 z m -53.26375,-1.296069 c 0,-0.55 -1.2375,-0.968372 -2.75,-0.929715 -2.43685,0.06228 -2.52225,0.168153 -0.75,0.929715 2.73138,1.173714 3.5,1.173714 3.5,0 z m 23,0 c -0.825,-0.533156 -3.975,-0.969374 -7,-0.969374 -3.025,0 -6.175,0.436218 -7,0.969374 -1.03281,0.66745 1.14743,0.969374 7,0.969374 5.85256,0 8.0328,-0.301924 7,-0.969374 z"
       id="path1718"
       inkscape:connector-curvature="0"
       transform="scale(0.26458333)" />
    <path
       style="opacity:1;fill:#ffffff;fill-opacity:1;stroke:none;stroke-width:4.78110218;stroke-miterlimit:4;stroke-dasharray:none;stroke-dashoffset:0;stroke-opacity:1"
       d="m 497.39553,98.806241 c -6.325,-0.4343 -43.225,-2.60862 -82,-4.8318 -38.775,-2.22319 -74.2125,-4.31813 -78.75,-4.65542 l -8.25,-0.61326 V 69.845431 50.985109 l 5.75,-0.36082 5.75,-0.360819 -5.75,-0.189085 -5.75,-0.189084 v -30 -30 l 5.88389,-5.88389 c 10.28361,-10.283613 22.8783,-17.729345 39.29114,-23.228152 16.69058,-5.591861 26.12158,-6.984834 51.32497,-7.580781 33.54058,-0.793086 50.97891,2.204036 70,12.030878 16.99688,8.781078 29.94325,26.2008987 29.81237,40.1136247 -0.0931,9.8980473 -3.52688,55.9800403 -4.23088,56.7795103 -0.35413,0.40216 -5.80484,-0.15736 -12.11268,-1.24337 -6.30785,-1.08601 -12.36881,-1.92824 -13.46881,-1.87162 -2.07672,0.10688 0.56377,0.66432 16.39336,3.46082 l 9.39336,1.65947 -0.68523,12.13175 c -0.37687,6.67247 -0.95549,14.71926 -1.28581,17.88176 l -0.60059,5.75 -4.60755,-0.14471 c -2.53415,-0.07959 -9.78254,-0.50004 -16.10754,-0.93435 z m -5.75,-40.58322 c -0.6875,-0.27741 -1.8125,-0.27741 -2.5,0 -0.6875,0.27741 -0.125,0.50439 1.25,0.50439 1.375,0 1.9375,-0.22698 1.25,-0.50439 z m -24,-3 c -0.6875,-0.27741 -1.8125,-0.27741 -2.5,0 -0.6875,0.27741 -0.125,0.50439 1.25,0.50439 1.375,0 1.9375,-0.22698 1.25,-0.50439 z m -17,-2 c -0.6875,-0.27741 -1.8125,-0.27741 -2.5,0 -0.6875,0.27741 -0.125,0.50439 1.25,0.50439 1.375,0 1.9375,-0.22698 1.25,-0.50439 z m -27.98097,-1.993657 c -0.67703,-0.273923 -2.02703,-0.290597 -3,-0.03705 -0.97297,0.25354 -0.41903,0.477659 1.23097,0.498038 1.65,0.02038 2.44606,-0.187065 1.76903,-0.460988 z m -65,-1 c -0.67703,-0.273923 -2.02703,-0.290597 -3,-0.03705 -0.97297,0.25354 -0.41903,0.477659 1.23097,0.498038 1.65,0.02038 2.44606,-0.187065 1.76903,-0.460988 z m 12.23097,-0.344063 c 0.35911,-0.581062 -0.55877,-0.970555 -2.19099,-0.929715 -2.47082,0.06182 -2.56822,0.173758 -0.80901,0.929715 1.1,0.472686 2.08594,0.891058 2.19098,0.929715 0.10504,0.03866 0.4691,-0.379715 0.80902,-0.929715 z m 22.5,0 c -0.825,-0.533156 -3.525,-0.969374 -6,-0.969374 -2.475,0 -5.175,0.436218 -6,0.969374 -1.04139,0.672999 0.79304,0.969374 6,0.969374 5.20696,0 7.04139,-0.296375 6,-0.969374 z"
       id="path1720"
       inkscape:connector-curvature="0"
       transform="scale(0.26458333)" />
    <path
       style="opacity:1;fill:#ffffff;fill-opacity:1;stroke:none;stroke-width:4.78110218;stroke-miterlimit:4;stroke-dasharray:none;stroke-dashoffset:0;stroke-opacity:1"
       d="m 479.39553,97.836051 c -15.675,-0.98363 -52.8,-3.17117 -82.5,-4.8612 -29.7,-1.69003 -57.2625,-3.33994 -61.25,-3.66648 l -7.25,-0.59371 V 69.849881 50.985109 l 5.75,-0.36082 5.75,-0.360819 -5.75,-0.189085 -5.75,-0.189084 V 19.910779 -10.063742 l 5.75,-5.842578 c 13.54528,-13.763368 35.3799,-24.238749 60.25,-28.905557 13.94888,-2.61747 59.86244,-2.603132 71.79607,0.02242 28.0282,6.166566 46.357,18.260926 54.88341,36.2151137 3.64777,7.68116999 3.73765,8.14475299 3.47488,17.922386 -0.14837,5.5204923 -1.03129,19.7122583 -1.96206,31.5372583 l -1.6923,21.5 -5,-0.18552 -5,-0.18552 4.88871,1.06904 4.8887,1.06904 -0.68028,12.61648 c -0.37415,6.93906 -0.94852,14.97898 -1.27638,17.86648 l -0.59611,5.25 -5.11232,-0.13041 c -2.81178,-0.07173 -17.93732,-0.93521 -33.61232,-1.91884 z m 30.26903,-36.60669 c -0.67703,-0.27392 -2.02703,-0.29059 -3,-0.037 -0.97297,0.25354 -0.41903,0.47766 1.23097,0.49804 1.65,0.0204 2.44606,-0.18706 1.76903,-0.46099 z m -6,-1 c -0.67703,-0.27392 -2.02703,-0.29059 -3,-0.037 -0.97297,0.25354 -0.41903,0.47766 1.23097,0.49804 1.65,0.0204 2.44606,-0.18706 1.76903,-0.46099 z m -6.01903,-1.00634 c -0.6875,-0.27741 -1.8125,-0.27741 -2.5,0 -0.6875,0.27741 -0.125,0.50439 1.25,0.50439 1.375,0 1.9375,-0.22698 1.25,-0.50439 z M 357.12469,50.281134 c -0.33229,-0.332291 -1.19479,-0.367818 -1.91666,-0.07895 -0.79774,0.319226 -0.56078,0.556183 0.60416,0.604167 1.05417,0.04342 1.6448,-0.192928 1.3125,-0.52522 z m 33.27084,-0.395833 c 0,-0.55 -1.6875,-0.993109 -3.75,-0.984687 -2.78938,0.01139 -3.36575,0.263632 -2.25,0.984687 1.97089,1.273685 6,1.273685 6,0 z m -21.27084,-0.604167 c -0.33229,-0.332291 -1.19479,-0.367818 -1.91666,-0.07895 -0.79774,0.319226 -0.56078,0.556183 0.60416,0.604167 1.05417,0.04342 1.6448,-0.192928 1.3125,-0.52522 z"
       id="path1722"
       inkscape:connector-curvature="0"
       transform="scale(0.26458333)" />
    <path
       style="opacity:1;fill:#808080;fill-opacity:1;stroke:none;stroke-width:4.78110218;stroke-miterlimit:4;stroke-dasharray:none;stroke-dashoffset:0;stroke-opacity:1"
       d="m 419.39553,94.328501 c -48.125,-2.91619 -88.2875,-5.3339 -89.25,-5.37268 -1.60261,-0.06458 -1.75,-1.6662 -1.75,-19.01573 V 50.994883 l 4.75,-0.374543 4.75,-0.374543 -4.75,-0.180248 -4.75,-0.180248 v -30.08 -30.08 l 5.75,-5.728601 c 13.37962,-13.329832 32.97456,-23.006017 57.051,-28.172388 12.50663,-2.683697 49.46332,-3.816914 65.11951,-1.996785 21.72781,2.525992 40.64595,10.252567 52.91461,21.611458 5.7168,5.292887 8.01075,8.348855 11.39753,15.1836627 4.07736,8.228459 4.23314,8.88741699 4.0565,17.159856 -0.2115,9.9057573 -3.19504,51.9781473 -3.82005,53.8686573 -0.28645,0.86644 -1.76753,1.11067 -4.6938,0.77403 l -4.2753,-0.49183 4.39493,1.06348 4.39493,1.06348 -0.66945,13.16249 c -0.3682,7.23937 -0.94139,15.29999 -1.27376,17.91249 l -0.60431,4.75 -5.62117,-0.12732 c -3.09164,-0.07003 -44.99617,-2.51329 -93.12117,-5.42948 z m 89.72917,-33.04737 c -0.3323,-0.33229 -1.1948,-0.36781 -1.91667,-0.0789 -0.79773,0.31922 -0.56078,0.55618 0.60417,0.60416 1.05416,0.0434 1.64479,-0.19292 1.3125,-0.52522 z m -6,-1 c -0.3323,-0.33229 -1.1948,-0.36781 -1.91667,-0.0789 -0.79773,0.31922 -0.56078,0.55618 0.60417,0.60416 1.05416,0.0434 1.64479,-0.19292 1.3125,-0.52522 z M 389.89553,49.885301 c -0.33992,-0.55 -1.71648,-1 -3.05902,-1 -1.34254,0 -2.44098,0.45 -2.44098,1 0,0.55 1.37656,1 3.05901,1 1.78471,0 2.80156,-0.416577 2.44099,-1 z m -20.77084,-0.604167 c -0.33229,-0.332291 -1.19479,-0.367818 -1.91666,-0.07895 -0.79774,0.319226 -0.56078,0.556183 0.60416,0.604167 1.05417,0.04342 1.6448,-0.192928 1.3125,-0.52522 z"
       id="path1724"
       inkscape:connector-curvature="0"
       transform="scale(0.26458333)" />
    <path
       style="opacity:1;fill:#808080;fill-opacity:1;stroke:none;stroke-width:4.78110218;stroke-miterlimit:4;stroke-dasharray:none;stroke-dashoffset:0;stroke-opacity:1"
       d="m 402.89553,130.28201 c -2.2,-0.22473 -10.975,-1.11321 -19.5,-1.9744 -27.85483,-2.81387 -60,-7.88718 -60,-9.4695 0,-0.46167 1.00013,-1.53992 2.2225,-2.39611 2.77417,-1.9431 1.1499,-1.98454 -2.2225,-0.0567 -1.375,0.78602 -4.3,1.43974 -6.5,1.45271 -8.80652,0.0519 -50.07615,-10.99369 -58.95985,-15.7803 -5.79935,-3.124742 -17.03779,-13.300263 -19.10526,-17.298307 -2.43867,-4.715865 -1.84352,-10.339105 1.49691,-14.14365 5.66796,-6.455448 21.63187,-12.22211 43.5682,-15.738187 11.47886,-1.839896 32.378,-3.960132 39.25,-3.981948 l 3.25,-0.01032 v 19.78539 19.78539 l 49.75,2.7918 c 27.3625,1.53549 67.975,3.852414 90.25,5.148719 22.275,1.296306 43.425,2.499073 47,2.672813 l 6.5,0.31589 1.31663,-17.9833 c 0.72415,-9.890814 1.45993,-18.126597 1.63507,-18.30174 0.51101,-0.511009 23.38805,5.451076 31.10603,8.10668 26.91574,9.261161 32.62156,19.330446 16.71129,29.49104 -14.39151,9.19069 -66.41699,24.97939 -79.25535,24.05244 -1.96317,-0.14175 -4.06153,0.0464 -4.66301,0.41816 -2.69834,1.66767 -20.23091,2.7963 -48.85066,3.14468 -17.05,0.20754 -32.8,0.19348 -35,-0.0312 z"
       id="path1726"
       inkscape:connector-curvature="0"
       transform="scale(0.26458333)" />
    <path
       style="opacity:1;fill:#ff6600;fill-opacity:1;stroke:none;stroke-width:4.78110218;stroke-miterlimit:4;stroke-dasharray:none;stroke-dashoffset:0;stroke-opacity:1"
       d="m 415.69671,232.07187 c -27.05935,-16.29225 -49.02455,-29.79654 -48.81154,-30.00954 0.213,-0.21301 8.82415,-1.38338 19.13588,-2.60084 l 18.7486,-2.21356 33.41987,30.96909 c 23.15709,21.4589 33.00318,31.19284 32.06294,31.69772 -4.26752,2.29153 -5.83483,1.49164 -54.55575,-27.84287 z"
       id="path1728"
       inkscape:connector-curvature="0"
       transform="scale(0.26458333)" />
    <path
       style="opacity:1;fill:#ff6600;fill-opacity:1;stroke:none;stroke-width:4.78110218;stroke-miterlimit:4;stroke-dasharray:none;stroke-dashoffset:0;stroke-opacity:1"
       d="m 401.05888,236.15376 -58.83665,-27.61731 8.83665,-2.76611 c 4.86016,-1.52135 9.66103,-2.79286 10.6686,-2.82557 2.42732,-0.0788 100.77912,58.9518 100.08682,60.07196 -0.29524,0.47771 -0.84775,0.84287 -1.22779,0.81145 -0.38004,-0.0314 -27.16747,-12.4849 -59.52763,-27.67442 z"
       id="path1730"
       inkscape:connector-curvature="0"
       transform="scale(0.26458333)" />
    <path
       style="opacity:1;fill:#ff6600;fill-opacity:1;stroke:none;stroke-width:4.78110218;stroke-miterlimit:4;stroke-dasharray:none;stroke-dashoffset:0;stroke-opacity:1"
       d="m 484.69593,273.38316 c -1.17953,-0.82618 -4.31716,-2.61933 -6.9725,-3.98479 -2.65535,-1.36546 -5.93976,-3.35387 -7.29869,-4.4187 l -2.47079,-1.93605 2.71937,-1.23903 c 2.5945,-1.18213 3.0294,-0.94747 9.47079,5.11014 3.71328,3.49205 7.17892,6.71399 7.70142,7.15987 1.70642,1.45621 -0.90047,0.88391 -3.1496,-0.69144 z"
       id="path1732"
       inkscape:connector-curvature="0"
       transform="scale(0.26458333)" />
    <path
       style="opacity:1;fill:#ff6600;fill-opacity:1;stroke:none;stroke-width:4.78110218;stroke-miterlimit:4;stroke-dasharray:none;stroke-dashoffset:0;stroke-opacity:1"
       d="m 468.48329,268.15831 c -1.32673,-0.25005 -3.03645,-1.07884 -3.79937,-1.84176 -0.76291,-0.76291 -2.14866,-1.8133 -3.07943,-2.33418 -0.93076,-0.52089 -1.43078,-1.20858 -1.11114,-1.52822 0.58017,-0.58018 9.55292,3.7785 11.35218,5.51453 1.00323,0.96798 0.82192,0.97821 -3.36224,0.18963 z"
       id="path1734"
       inkscape:connector-curvature="0"
       transform="scale(0.26458333)" />
    <path
       style="opacity:1;fill:#000000;fill-opacity:1;stroke:none;stroke-width:4.78110218;stroke-miterlimit:4;stroke-dasharray:none;stroke-dashoffset:0;stroke-opacity:1"
       d="m 347.39553,173.60665 c -2.97169,-1.48486 -5.99627,-7.07702 -5.99845,-11.09054 -0.002,-3.83452 5.91282,-13.37539 11.46483,-18.49305 7.52772,-6.93882 14.34945,-5.42728 20.14607,4.46392 6.76675,11.54659 3.97067,20.81156 -7.50235,24.85947 -5.24483,1.85049 -14.65678,1.98571 -18.1101,0.2602 z"
       id="path1736"
       inkscape:connector-curvature="0"
       transform="scale(0.26458333)" />
    <path
       style="opacity:1;fill:#000000;fill-opacity:1;stroke:none;stroke-width:4.78110218;stroke-miterlimit:4;stroke-dasharray:none;stroke-dashoffset:0;stroke-opacity:1"
       d="m 418.16575,170.91919 c -2.98414,-2.34731 -5.06133,-6.94608 -4.60222,-10.18894 0.21694,-1.53226 2.758,-4.17379 7.332,-7.6219 9.00924,-6.7916 16.418,-10.41267 22.50028,-10.9971 4.26126,-0.40945 5.17785,-0.13872 7.54517,2.2286 2.35012,2.35012 2.63655,3.29947 2.24016,7.42479 -0.24998,2.60158 -1.76942,7.38651 -3.37653,10.63318 -2.81583,5.68851 -3.15803,5.98539 -9.41556,8.16874 -8.55407,2.98466 -18.6731,3.14523 -22.2233,0.35263 z"
       id="path1738"
       inkscape:connector-curvature="0"
       transform="scale(0.26458333)" />
    <path
       style="fill:none;stroke:#000000;stroke-width:0.26458332px;stroke-linecap:butt;stroke-linejoin:miter;stroke-opacity:1"
       d="m 84.137499,71.310417 4.497917,-7.672916 5.027083,7.143749 6.879171,-6.085416 7.40833,4.7625 1.32292,-2.645834 7.40833,2.645834 -0.26458,-0.529167"
       id="path1748"
       inkscape:connector-curvature="0" />
    <path
       style="fill:#000000;stroke:#000000;stroke-width:0.26458332px;stroke-linecap:butt;stroke-linejoin:miter;stroke-opacity:1"
       d="m 95.514582,90.360417 c 0,0 0.264583,-10.054167 9.260418,-6.085417 8.99583,3.96875 0.79375,9.260417 0.79375,9.260417 0,0 -0.52917,5.027083 -10.054168,-3.175 z"
       id="path1750"
       inkscape:connector-curvature="0" />
    <path
       style="fill:#000000;stroke:#000000;stroke-width:0.2012604px;stroke-linecap:butt;stroke-linejoin:miter;stroke-opacity:1"
       d="m 98.080835,101.97042 c -6.390753,3.12473 -6.831495,6.43326 -6.831495,6.43326 0,0 0.440742,1.83807 1.101855,2.5733 0.661112,0.73523 10.137055,5.51422 13.662985,0.91903 3.52594,-4.59518 -6.61112,-9.92559 -6.61112,-9.92559 z"
       id="path1752"
       inkscape:connector-curvature="0" />
    <path
       style="fill:#000000;stroke:#000000;stroke-width:0.2070998px;stroke-linecap:butt;stroke-linejoin:miter;stroke-opacity:1"
       d="m 101.48033,148.7958 c 18.25709,-0.59906 10.0951,8.98586 10.0951,8.98586 0,0 -5.79931,9.98428 -11.16904,8.58649 -5.369732,-1.39781 -14.176089,-5.19184 -12.887353,-8.3868 1.288735,-3.19498 6.443675,-7.78775 10.954248,-8.18712 4.510575,-0.39937 3.007045,-0.99843 3.007045,-0.99843 z"
       id="path1754"
       inkscape:connector-curvature="0" />
    <path
       style="fill:#000000;stroke:#000000;stroke-width:0.17849194px;stroke-linecap:butt;stroke-linejoin:miter;stroke-opacity:1"
       d="m 96.914305,172.07335 c -9.066205,1.63053 -8.597264,8.15267 -8.597264,8.15267 0,0 -0.625256,10.39465 6.096242,10.19083 6.721497,-0.20382 12.192487,-1.63054 15.162457,-8.5603 2.96996,-6.92977 -12.661435,-9.7832 -12.661435,-9.7832 z"
       id="path1756"
       inkscape:connector-curvature="0" />
    <path
       style="fill:#000000;stroke:#000000;stroke-width:0.2070998px;stroke-linecap:butt;stroke-linejoin:miter;stroke-opacity:1"
       d="m 103.74504,200.31863 c 18.25709,-0.59906 10.0951,8.98586 10.0951,8.98586 0,0 -5.79931,9.98428 -11.16904,8.58649 -5.36973,-1.39781 -14.176091,-5.19184 -12.88735,-8.3868 1.28873,-3.19498 6.44367,-7.78775 10.95424,-8.18712 4.51058,-0.39937 3.00705,-0.99843 3.00705,-0.99843 z"
       id="path1754-7"
       inkscape:connector-curvature="0" />
    <path
       style="fill:#000000;stroke:#000000;stroke-width:0.26458332px;stroke-linecap:butt;stroke-linejoin:miter;stroke-opacity:1"
       d="M 128.5875,99.091667 171.45,125.81458 146.84375,168.94167 164.83541,127.40208 130.175,108.61667 Z"
       id="path1773"
       inkscape:connector-curvature="0" />
    <path
       style="fill:#000000;stroke:#000000;stroke-width:0.26458332px;stroke-linecap:butt;stroke-linejoin:miter;stroke-opacity:1"
       d="m 65.351731,98.663357 -42.8625,26.722923 24.60625,43.12709 -17.99166,-41.53959 34.66041,-18.78541 z"
       id="path1773-0"
       inkscape:connector-curvature="0" />
  </g>
</svg>
