<?xml version="1.0" encoding="UTF-8" standalone="no"?>
<!-- Created with Inkscape (http://www.inkscape.org/) -->

<svg
   xmlns:dc="http://purl.org/dc/elements/1.1/"
   xmlns:cc="http://creativecommons.org/ns#"
   xmlns:rdf="http://www.w3.org/1999/02/22-rdf-syntax-ns#"
   xmlns:svg="http://www.w3.org/2000/svg"
   xmlns="http://www.w3.org/2000/svg"
   xmlns:sodipodi="http://sodipodi.sourceforge.net/DTD/sodipodi-0.dtd"
   xmlns:inkscape="http://www.inkscape.org/namespaces/inkscape"
   width="210mm"
   height="297mm"
   viewBox="0 0 210 297"
   version="1.1"
   id="svg1814"
   inkscape:version="0.92.4 (5da689c313, 2019-01-14)"
   sodipodi:docname="phineas.svg">
  <defs
     id="defs1808" />
  <sodipodi:namedview
     id="base"
     pagecolor="#ffffff"
     bordercolor="#666666"
     borderopacity="1.0"
     inkscape:pageopacity="0.0"
     inkscape:pageshadow="2"
     inkscape:zoom="1.979899"
     inkscape:cx="349.5233"
     inkscape:cy="811.00629"
     inkscape:document-units="mm"
     inkscape:current-layer="layer1"
     showgrid="false"
     inkscape:window-width="1190"
     inkscape:window-height="837"
     inkscape:window-x="-8"
     inkscape:window-y="0"
     inkscape:window-maximized="0" />
  <metadata
     id="metadata1811">
    <rdf:RDF>
      <cc:Work
         rdf:about="">
        <dc:format>image/svg+xml</dc:format>
        <dc:type
           rdf:resource="http://purl.org/dc/dcmitype/StillImage" />
        <dc:title></dc:title>
      </cc:Work>
    </rdf:RDF>
  </metadata>
  <g
     inkscape:label="Layer 1"
     inkscape:groupmode="layer"
     id="layer1">
    <path
       style="fill:none;stroke:#000000;stroke-width:0.26458332px;stroke-linecap:butt;stroke-linejoin:miter;stroke-opacity:1"
       d="m 72.571427,89.113094 c 0,0 12.095239,0.377976 21.166666,-13.229166 0,0 15.119047,13.229167 -8.69345,27.970242"
       id="path2449"
       inkscape:connector-curvature="0" />
    <path
       style="fill:none;stroke:#000000;stroke-width:0.26458332px;stroke-linecap:butt;stroke-linejoin:miter;stroke-opacity:1"
       d="M 96.572915,79.380206 78.997023,92.04241 75.689732,88.735118"
       id="path2451"
       inkscape:connector-curvature="0" />
    <path
       style="fill:none;stroke:#000000;stroke-width:0.26458332px;stroke-linecap:butt;stroke-linejoin:miter;stroke-opacity:1"
       d="m 95.249999,95.160713 -9.732886,4.063243 1.606397,3.212794"
       id="path2453"
       inkscape:connector-curvature="0" />
    <path
       style="fill:none;stroke:#000000;stroke-width:0.26458332px;stroke-linecap:butt;stroke-linejoin:miter;stroke-opacity:1"
       d="m 81.831843,89.963539 c 0.472472,0 6.803573,1.322917 6.614583,7.9375"
       id="path2455"
       inkscape:connector-curvature="0" />
    <path
       style="fill:none;stroke:#000000;stroke-width:0.26458332px;stroke-linecap:butt;stroke-linejoin:miter;stroke-opacity:1"
       d="m 85.044641,103.85417 9.034233,11.13528 c 0,0 6.548106,2.53906 9.220796,0.4009 2.6727,-2.13815 3.0736,-40.758597 21.78247,-55.458421 L 121.8749,55.388347 43.832203,67.415476 72.571427,89.113094"
       id="path2560"
       inkscape:connector-curvature="0" />
    <path
       style="fill:#f9f9f9;stroke:#000000;stroke-width:0.26458332px;stroke-linecap:butt;stroke-linejoin:miter;stroke-opacity:1"
       d="m 107.04144,86.257976 c 4.14268,4.543583 13.22985,-4.944486 2.00453,-4.677217"
       id="path2566"
       inkscape:connector-curvature="0" />
    <path
       style="fill:none;stroke:#000000;stroke-width:0.26458332px;stroke-linecap:butt;stroke-linejoin:miter;stroke-opacity:1"
       d="m 110.13281,83.065474 c 2.78758,-0.188987 0.70871,1.937128 0.0473,1.322917 0,0 3.42205,1.815686 -0.33078,1.700894"
       id="path2568"
       inkscape:connector-curvature="0" />
    <path
       style="fill:none;stroke:#000000;stroke-width:0.26458332px;stroke-linecap:butt;stroke-linejoin:miter;stroke-opacity:1"
       d="m 92.608891,96.280583 c 0,0 -0.267272,-5.879928 5.34539,-6.815373"
       id="path2570"
       inkscape:connector-curvature="0" />
    <path
       style="opacity:1;fill:#000000;fill-opacity:1;stroke:none;stroke-width:1.26499999;stroke-miterlimit:4;stroke-dasharray:none;stroke-dashoffset:0;stroke-opacity:1"
       id="path2580"
       sodipodi:type="arc"
       sodipodi:cx="92.207985"
       sodipodi:cy="61.13464"
       sodipodi:rx="11.492589"
       sodipodi:ry="10.690781"
       sodipodi:start="0"
       sodipodi:end="6.2634282"
       sodipodi:open="true"
       d="M 103.70057,61.13464 A 11.492589,10.690781 0 0 1 92.26475,71.82529 11.492589,10.690781 0 0 1 80.715957,61.240247 11.492589,10.690781 0 0 1 92.037696,50.445033 11.492589,10.690781 0 0 1 103.69833,60.923435" />
    <path
       style="opacity:1;fill:#ffffff;fill-opacity:1;stroke:none;stroke-width:1.26499999;stroke-miterlimit:4;stroke-dasharray:none;stroke-dashoffset:0;stroke-opacity:1"
       id="path2584"
       sodipodi:type="arc"
       sodipodi:cx="92.141167"
       sodipodi:cy="61.268276"
       sodipodi:rx="10.22306"
       sodipodi:ry="9.4880686"
       sodipodi:start="0"
       sodipodi:end="6.2634282"
       sodipodi:open="true"
       d="M 102.36423,61.268276 A 10.22306,9.4880686 0 0 1 92.191661,70.756229 10.22306,9.4880686 0 0 1 81.918606,61.362003 10.22306,9.4880686 0 0 1 91.989689,51.781249 10.22306,9.4880686 0 0 1 102.36223,61.080832" />
    <path
       style="opacity:1;fill:#0000ff;fill-opacity:1;stroke:none;stroke-width:1.26499999;stroke-miterlimit:4;stroke-dasharray:none;stroke-dashoffset:0;stroke-opacity:1"
       id="path2586"
       sodipodi:type="arc"
       sodipodi:cx="64.74604"
       sodipodi:cy="44.36348"
       sodipodi:rx="0.60135639"
       sodipodi:ry="0.06681738"
       sodipodi:start="0"
       sodipodi:end="6.2634282"
       sodipodi:open="true"
       d="m 65.347397,44.36348 a 0.60135639,0.06681738 0 0 1 -0.598386,0.06682 0.60135639,0.06681738 0 0 1 -0.604298,-0.06616 0.60135639,0.06681738 0 0 1 0.592417,-0.06747 0.60135639,0.06681738 0 0 1 0.610149,0.06549" />
    <path
       style="opacity:1;fill:#0000ff;fill-opacity:1;stroke:none;stroke-width:1.26499999;stroke-miterlimit:4;stroke-dasharray:none;stroke-dashoffset:0;stroke-opacity:1"
       id="path2588"
       sodipodi:type="arc"
       sodipodi:cx="94.145691"
       sodipodi:cy="59.998749"
       sodipodi:rx="2.8731472"
       sodipodi:ry="5.8131123"
       sodipodi:start="0"
       sodipodi:end="6.2634282"
       sodipodi:open="true"
       d="m 97.018838,59.998749 a 2.8731472,5.8131123 0 0 1 -2.858956,5.813041 2.8731472,5.8131123 0 0 1 -2.887198,-5.755617 2.8731472,5.8131123 0 0 1 2.830435,-5.869898 2.8731472,5.8131123 0 0 1 2.915158,5.697631" />
    <path
       style="opacity:1;fill:#f9f9f9;fill-opacity:1;stroke:none;stroke-width:1.26499999;stroke-miterlimit:4;stroke-dasharray:none;stroke-dashoffset:0;stroke-opacity:1"
       id="path2590"
       sodipodi:type="arc"
       sodipodi:cx="93.277069"
       sodipodi:cy="59.063305"
       sodipodi:rx="0.93544334"
       sodipodi:ry="1.2695302"
       sodipodi:start="0"
       sodipodi:end="6.2634282"
       sodipodi:open="true"
       d="m 94.212512,59.063305 a 0.93544334,1.2695302 0 0 1 -0.930823,1.269515 0.93544334,1.2695302 0 0 1 -0.940018,-1.256974 0.93544334,1.2695302 0 0 1 0.921537,-1.281932 0.93544334,1.2695302 0 0 1 0.949122,1.24431" />
  </g>
</svg>
